<svg xmlns="http://www.w3.org/2000/svg" viewBox="0 0 800 800" role="img" aria-labelledby="title desc">
  <title id="title">Food placeholder</title>
  <desc id="desc">Neutral bowl icon placeholder for food image.</desc>
  <defs>
    <linearGradient id="bg" x1="0" y1="0" x2="1" y2="1">
      <stop offset="0" stop-color="#0f1515"/>
      <stop offset="1" stop-color="#1d2c2b"/>
    </linearGradient>
    <linearGradient id="bowl" x1="0" y1="0" x2="0" y2="1">
      <stop offset="0" stop-color="#00b3a4"/>
      <stop offset="1" stop-color="#007a73"/>
    </linearGradient>
  </defs>
  <rect width="800" height="800" fill="url(#bg)"/>
  <g opacity="0.25" fill="#ffffff">
    <circle cx="130" cy="140" r="20"/>
    <circle cx="700" cy="170" r="14"/>
    <circle cx="670" cy="670" r="16"/>
    <circle cx="120" cy="650" r="12"/>
  </g>
  <g transform="translate(120 170)">
    <ellipse cx="280" cy="180" rx="170" ry="80" fill="#f2f8f7" opacity="0.15"/>
    <path d="M85 220c18 125 95 205 195 205s177-80 195-205H85z" fill="url(#bowl)"/>
    <path d="M65 205h430" stroke="#ffffff" stroke-opacity="0.2" stroke-width="24" stroke-linecap="round"/>
    <circle cx="210" cy="140" r="38" fill="#7ce0d6"/>
    <circle cx="282" cy="105" r="34" fill="#6dcf98"/>
    <circle cx="355" cy="140" r="38" fill="#7ce0d6"/>
    <rect x="250" y="140" width="20" height="50" rx="10" fill="#6dcf98"/>
    <rect x="315" y="163" width="20" height="40" rx="10" fill="#6dcf98"/>
  </g>
  <text x="400" y="710" text-anchor="middle" fill="#d4ece9" font-family="Outfit, sans-serif" font-size="34" letter-spacing="2">FOOD IMAGE</text>
</svg>
